<svg width="301" height="22" viewBox="0 0 301 22" fill="none" xmlns="http://www.w3.org/2000/svg">
<path d="M197.374 0.796875L197.374 20.9181" stroke="black"/>
<path d="M60.9408 20.1557V1.7793H53.2152L45.2256 12.8579C45.066 13.0792 44.856 13.2595 44.6131 13.3838C44.3702 13.5081 44.1012 13.5729 43.8283 13.5729C43.5554 13.5729 43.2864 13.5081 43.0435 13.3838C42.8005 13.2595 42.5906 13.0792 42.4309 12.8579L34.4414 1.7793H26.7144L34.8982 13.1277H30.6098C30.3946 13.1278 30.1825 13.0769 29.9909 12.9791C29.7993 12.8812 29.6336 12.7393 29.5076 12.565L23.9864 4.90898C23.2874 3.93988 22.3681 3.15075 21.3043 2.60662C20.2405 2.06248 19.0626 1.77892 17.8677 1.7793C16.6733 1.77938 15.496 2.06317 14.4327 2.60728C13.3695 3.1514 12.4506 3.94027 11.7519 4.90898L7.78253 10.4128V1.7793H0.754517V20.1557H8.48446L16.474 9.07705C16.6336 8.85573 16.8436 8.6755 17.0865 8.55119C17.3295 8.42688 17.5984 8.36206 17.8713 8.36206C18.1442 8.36206 18.4132 8.42688 18.6562 8.55119C18.8991 8.6755 19.109 8.85573 19.2687 9.07705L25.6049 17.8613C26.117 18.5715 26.7904 19.1498 27.5698 19.5487C28.3492 19.9476 29.2122 20.1556 30.0877 20.1557H34.9809V13.2408L37.7089 17.0216C38.408 17.9905 39.3274 18.7793 40.3912 19.3232C41.455 19.8671 42.6328 20.1504 43.8276 20.1499C45.0226 20.1506 46.2007 19.8674 47.2647 19.3235C48.3288 18.7796 49.2484 17.9907 49.9477 17.0216L53.9127 11.5237V20.1571L60.9408 20.1557Z" fill="#1A1A1A"/>
<path d="M79.7507 21.0581C83.2748 21.0581 86.5118 20.5868 89.2732 19.7528V12.9366C87.1978 13.856 83.7085 14.4594 79.7507 14.4594C73.3854 14.4594 68.2254 12.8974 68.2254 10.97C68.2254 9.0426 73.3854 7.48936 79.7507 7.48936C83.7085 7.48936 87.1978 8.09267 89.2732 9.01214V2.19587C86.5176 1.36341 83.2748 0.890625 79.7507 0.890625C69.0274 0.890625 60.9392 5.22839 60.9392 10.9802C60.9392 16.7319 69.0274 21.0581 79.7507 21.0581Z" fill="#1A1A1A"/>
<path d="M116.051 9.43655C115.49 8.92605 114.096 7.65706 113.111 6.81445L111.731 8.44746C112.446 9.10443 114.196 10.5924 114.741 11.1247L116.051 9.43655Z" fill="#1A1A1A"/>
<path d="M113.792 12.0371C113.593 12.8913 112.462 17.9745 112.243 18.8896L114.189 19.3856C114.348 18.5155 115.481 13.2945 115.678 12.5346L113.792 12.0371Z" fill="#1A1A1A"/>
<path d="M119.989 19.5837V16.7035H122.174V14.8573H119.989V13.6854H122.035V6.65453H119.989V5.50157H122.309V3.65392H119.989V1.86719H118.227V3.65392H116.196V4.64735C115.462 3.95267 114.33 2.90703 113.674 2.32692L112.317 3.8091C113.165 4.54874 114.177 5.54942 115.145 6.45874L116.196 5.1535V5.51172H118.227V6.66469H116.135V13.6854H118.241V14.8587H115.58V16.7049H118.241V19.5851L119.989 19.5837ZM117.844 8.3412H120.347V9.29547H117.844V8.3412ZM117.844 11.9379V10.9836H120.347V11.9451L117.844 11.9379Z" fill="#1A1A1A"/>
<path d="M124.333 2.7793H122.738V13.4446C122.738 16.7802 122.358 18.683 122.033 19.5676H123.964C124.452 17.7649 124.558 15.298 124.574 13.8463H126.512V16.612C126.512 17.3647 126.393 17.5445 125.676 17.5445H125.188V19.5676H126.007C127.775 19.5676 128.252 18.9875 128.252 17.3226V2.7793H124.336H124.333ZM126.509 11.8783H124.573V9.29681H126.509V11.8783ZM126.509 4.78502V7.35055H124.573V4.78502H126.509Z" fill="#1A1A1A"/>
<path d="M135.195 5.36383C134.539 4.49367 133.267 2.82151 132.593 1.96875L130.829 3.33345C131.546 4.20361 132.97 5.85982 133.505 6.66907L135.195 5.36383Z" fill="#1A1A1A"/>
<path d="M142.146 4.74596H146.317V2.74023H135.869V4.74596H140.06V11.4404H135.135V13.4853H140.06V19.4851H142.146V13.4853H146.993V11.4404H142.146V4.74596Z" fill="#1A1A1A"/>
<path d="M130.229 9.79175H132.085V16.8531V17.526V19.1924L136.002 16.7821V14.4428L134.153 15.5812V7.72656H133.902H132.085H130.229V9.79175Z" fill="#1A1A1A"/>
<path d="M138.043 5.95117L136.176 6.54143L137.63 10.4557L139.458 9.87706L138.043 5.95117Z" fill="#1A1A1A"/>
<path d="M144.576 10.4557L146.03 6.54143L144.163 5.95117L142.746 9.87706L144.576 10.4557Z" fill="#1A1A1A"/>
<path d="M170.158 8.58495V9.71616H180.188V8.54434C181.021 9.10655 181.883 9.62359 182.771 10.0932L183.743 8.12666C180.288 6.38634 177.685 4.17468 176.036 1.73242H174.329C172.641 4.23559 170.058 6.45885 166.563 8.20642L167.536 10.1527C168.437 9.67744 169.313 9.1541 170.158 8.58495ZM175.183 4.0166C176.097 5.22758 177.527 6.59808 179.194 7.82936H171.211C172.902 6.57922 174.29 5.24643 175.183 4.0166Z" fill="#1A1A1A"/>
<path d="M182.949 13.5806V11.6836H167.357V13.5806H172.103C171.275 14.6828 169.982 16.191 168.418 17.257L169.164 19.3671L169.215 19.5122L179.744 19.0452C180.005 19.37 180.268 19.6963 180.522 20.0154L182.272 18.7102C180.626 16.6435 178.625 14.2143 178.603 14.1781L176.915 15.5718C176.928 15.5848 177.47 16.2461 178.22 17.1671L171.597 17.4571C172.794 16.2899 173.857 14.992 174.765 13.5878L182.949 13.5806Z" fill="#1A1A1A"/>
<path d="M96.9988 11.0899L98.1591 9.26687L94.4493 6.57227L93.2513 8.39526C94.152 9.03628 95.9938 10.2966 96.9988 11.0899Z" fill="#1A1A1A"/>
<path d="M98.6376 4.96603C97.7051 4.17273 95.9952 2.84138 95.2222 2.26562L94.049 4.08137C94.864 4.67743 96.4927 5.8797 97.4455 6.6556L98.6376 4.96603Z" fill="#1A1A1A"/>
<path d="M98.0475 12.8159L96.0823 12.082C95.8227 12.9522 94.1752 17.8411 93.817 18.7141L95.9025 19.4871C96.1418 18.6706 97.7893 13.586 98.0475 12.8159Z" fill="#1A1A1A"/>
<path d="M102.766 1.69727V3.57536H98.9015L98.8914 20.0142C100.401 19.3587 103.117 18.1868 103.634 17.9679V15.8606L100.928 16.8685V12.0159H102.241C102.472 12.8716 104.159 18.2985 110.225 19.9127V17.7663C109.055 17.3881 107.977 16.7702 107.059 15.952C107.784 15.5503 109.074 14.7483 110.105 13.6881L108.972 12.1958C108.102 13.1646 106.73 14.071 105.77 14.5539C105.193 13.7787 104.733 12.9238 104.402 12.0159H108.898L108.891 3.57536H104.801V1.69727H102.766ZM106.927 10.2278H100.928V8.67886H106.927V10.2278ZM106.927 5.34179V6.91243H100.928V5.34179H106.927Z" fill="#1A1A1A"/>
<path d="M164.613 7.55758V5.81725H157.919V4.36698C159.926 4.24806 161.854 4.10884 163.285 3.96961L162.947 2.0625C159.493 2.42072 153.593 2.77894 150.256 2.81809L150.434 4.72375C151.845 4.6846 153.812 4.58597 155.836 4.48591V5.81725H149.184V7.55758H154.248C152.739 8.57277 150.932 9.32546 148.349 10.0796L149.204 11.8678C152.105 10.9353 154.189 9.98244 155.836 8.73085V11.044H157.922V8.7555C159.472 9.94618 161.439 10.8613 164.458 11.933L165.372 10.1057C162.69 9.33126 160.921 8.59743 159.392 7.56339L164.613 7.55758Z" fill="#1A1A1A"/>
<path d="M155.464 11.043H153.307C153.303 11.3528 153.27 11.6616 153.209 11.9653H148.903V13.7144H152.707C152.354 14.6715 151.982 15.4199 151.982 15.4344L151.493 16.3829L154.147 17.1181C152.613 17.5195 151.032 17.7146 149.447 17.6983V19.7765C152.949 19.7765 155.564 19.0311 157.493 18.0507L164.616 20.0216V17.8621L159.803 16.5322C160.77 15.7497 161.583 14.7942 162.2 13.7144H164.819V11.9653H155.393C155.439 11.66 155.463 11.3517 155.464 11.043ZM159.414 13.7144H159.704C159.008 14.556 158.169 15.2696 157.227 15.8231L154.411 15.0457C154.469 14.9007 154.701 14.3902 154.942 13.7144H159.414Z" fill="#1A1A1A"/>
<path d="M218.851 17.4355L219.788 19.9863L220.805 17.4355H221.834L220.36 21.1064H219.258L218.303 18.6409L217.347 21.1064H216.245L214.766 17.4355H215.794L216.787 19.9315L217.743 17.4355H218.851Z" fill="#1A1A1A"/>
<path d="M225.304 20.4066H223.258L222.911 21.1005H221.803L223.721 17.4297H224.829L226.747 21.1005H225.639L225.304 20.4066ZM223.618 19.6943H224.957L224.287 18.3428L223.618 19.6943Z" fill="#1A1A1A"/>
<path d="M229.656 21.1005H228.505L226.649 17.4297H227.757L229.09 20.1935L230.423 17.4297H231.531L229.656 21.1005Z" fill="#1A1A1A"/>
<path d="M232.128 21.1005V17.4297H235.841V18.215H233.144V18.8238H235.701V19.6091H233.144V20.3274H235.878V21.1127H232.128V21.1005Z" fill="#1A1A1A"/>
<path d="M243.561 21.1005V18.5255L242.198 21.1005H241.248L239.884 18.5255V21.1005H238.892V17.4297H240.237L241.717 20.2057L243.196 17.4297H244.535V21.1005H243.561Z" fill="#1A1A1A"/>
<path d="M249.886 20.3822C249.795 20.5466 249.661 20.6866 249.478 20.8083C249.296 20.9301 249.07 21.0275 248.796 21.0945C248.522 21.1675 248.206 21.198 247.847 21.198C247.487 21.198 247.165 21.1614 246.891 21.0945C246.617 21.0214 246.392 20.9301 246.209 20.8083C246.026 20.6866 245.892 20.5466 245.801 20.3822C245.71 20.2178 245.667 20.0474 245.667 19.8648V17.4297H246.653V19.5056C246.653 19.6273 246.672 19.743 246.702 19.8526C246.733 19.9622 246.793 20.0596 246.879 20.1387C246.964 20.2178 247.086 20.2848 247.244 20.3335C247.402 20.3822 247.603 20.4066 247.853 20.4066C248.102 20.4066 248.303 20.3822 248.455 20.3335C248.608 20.2848 248.729 20.2178 248.815 20.1387C248.9 20.0596 248.961 19.9622 248.991 19.8526C249.022 19.743 249.034 19.6273 249.034 19.5056V17.4297H250.026V19.8648C250.026 20.0474 249.977 20.2239 249.886 20.3822Z" fill="#1A1A1A"/>
<path d="M254.525 18.4643C254.458 18.4278 254.367 18.3913 254.251 18.3487C254.135 18.3061 254.007 18.2634 253.861 18.2269C253.715 18.1904 253.563 18.1539 253.393 18.1295C253.222 18.1052 253.052 18.093 252.869 18.093C252.729 18.093 252.607 18.0991 252.504 18.1052C252.4 18.1112 252.321 18.1234 252.248 18.1417C252.175 18.1599 252.126 18.1721 252.084 18.1904C252.041 18.2086 252.011 18.2269 251.992 18.2452C251.974 18.2634 251.956 18.2817 251.95 18.3061C251.944 18.3243 251.938 18.3426 251.938 18.3608C251.938 18.4156 251.962 18.4582 252.017 18.5009C252.072 18.5435 252.145 18.5739 252.236 18.6104C252.327 18.647 252.437 18.6713 252.559 18.6957C252.68 18.7261 252.814 18.7505 252.948 18.7809C253.088 18.8113 253.228 18.8418 253.374 18.8783C253.52 18.9148 253.667 18.9513 253.8 19C253.934 19.0487 254.068 19.0975 254.19 19.1644C254.312 19.2253 254.421 19.2983 254.513 19.3775C254.604 19.4566 254.677 19.554 254.732 19.6636C254.787 19.7732 254.811 19.8949 254.811 20.0289C254.811 20.2054 254.781 20.3576 254.72 20.4854C254.659 20.6133 254.574 20.7168 254.47 20.8081C254.367 20.8933 254.245 20.9664 254.111 21.0151C253.971 21.0699 253.831 21.1064 253.679 21.1368C253.527 21.1673 253.374 21.1855 253.222 21.1916C253.07 21.1977 252.924 21.2038 252.784 21.2038C252.419 21.2038 252.084 21.1733 251.773 21.1125C251.463 21.0516 251.189 20.9785 250.957 20.8872V20.0106C251.201 20.1445 251.481 20.2541 251.791 20.3272C252.102 20.4063 252.437 20.4428 252.796 20.4428C253.009 20.4428 253.18 20.4307 253.307 20.4124C253.435 20.3941 253.545 20.3637 253.618 20.3272C253.691 20.2906 253.746 20.2541 253.77 20.2115C253.794 20.1689 253.813 20.1324 253.813 20.0958C253.813 20.035 253.788 19.9862 253.733 19.9436C253.679 19.901 253.606 19.8645 253.514 19.828C253.423 19.7975 253.313 19.7671 253.192 19.7367C253.07 19.7062 252.936 19.6819 252.802 19.6514C252.662 19.6271 252.522 19.5966 252.376 19.5601C252.23 19.5297 252.09 19.4931 251.95 19.4444C251.81 19.4018 251.682 19.347 251.56 19.2923C251.438 19.2375 251.329 19.1644 251.238 19.0853C251.146 19.0061 251.073 18.9148 251.018 18.8113C250.964 18.7078 250.939 18.5861 250.939 18.4522C250.939 18.2878 250.97 18.1478 251.024 18.0321C251.079 17.9164 251.158 17.8129 251.256 17.7338C251.353 17.6486 251.463 17.5816 251.591 17.5329C251.718 17.4842 251.852 17.4416 251.992 17.4112C252.132 17.3807 252.272 17.3625 252.419 17.3503C252.565 17.3381 252.699 17.332 252.833 17.332C252.973 17.332 253.119 17.3381 253.271 17.3564C253.423 17.3746 253.569 17.3929 253.715 17.4173C253.861 17.4416 254.001 17.472 254.141 17.5086C254.281 17.5451 254.403 17.5755 254.519 17.6181V18.4643H254.525Z" fill="#1A1A1A"/>
<path d="M255.767 21.1005V17.4297H256.759V21.1005H255.767Z" fill="#1A1A1A"/>
<path d="M261.563 20.9964C261.435 21.039 261.301 21.0755 261.161 21.1059C261.021 21.1364 260.875 21.1607 260.723 21.179C260.57 21.1972 260.406 21.2033 260.229 21.2033C259.858 21.2033 259.511 21.1607 259.195 21.0816C258.878 21.0024 258.61 20.8807 258.385 20.7224C258.16 20.5641 257.983 20.3571 257.855 20.1197C257.727 19.8762 257.667 19.5962 257.667 19.2735C257.667 18.9509 257.727 18.6709 257.855 18.4274C257.983 18.1838 258.16 17.983 258.385 17.8247C258.61 17.6664 258.884 17.5446 259.195 17.4655C259.511 17.3864 259.852 17.3438 260.229 17.3438C260.406 17.3438 260.57 17.3498 260.723 17.3681C260.875 17.3864 261.021 17.4046 261.161 17.4412C261.301 17.4716 261.435 17.5081 261.563 17.5507C261.691 17.5933 261.824 17.642 261.952 17.6968V18.5856C261.849 18.5309 261.745 18.4761 261.63 18.4213C261.52 18.3665 261.392 18.3178 261.258 18.2752C261.124 18.2325 260.972 18.196 260.814 18.1656C260.65 18.1412 260.467 18.123 260.266 18.123C259.955 18.123 259.694 18.1534 259.493 18.2204C259.286 18.2813 259.121 18.3726 259 18.4761C258.878 18.5856 258.793 18.7074 258.744 18.8413C258.695 18.9752 258.671 19.1214 258.671 19.2675C258.671 19.3649 258.683 19.4623 258.701 19.5597C258.72 19.6571 258.756 19.7423 258.811 19.8275C258.86 19.9127 258.927 19.9919 259.006 20.0589C259.085 20.1319 259.188 20.1928 259.304 20.2415C259.426 20.2902 259.56 20.3328 259.724 20.3632C259.882 20.3937 260.065 20.4058 260.278 20.4058C260.479 20.4058 260.662 20.3937 260.826 20.3693C260.99 20.345 261.137 20.3084 261.27 20.2658C261.404 20.2232 261.532 20.1745 261.642 20.1197C261.751 20.0649 261.861 20.0102 261.964 19.9554V20.8503C261.824 20.905 261.691 20.9537 261.563 20.9964Z" fill="#1A1A1A"/>
<path d="M267.875 20.4066H265.83L265.483 21.1005H264.375L266.293 17.4297H267.401L269.318 21.1005H268.21L267.875 20.4066ZM266.189 19.6943H267.528L266.859 18.3428L266.189 19.6943Z" fill="#1A1A1A"/>
<path d="M273.385 17.4355L274.322 19.9863L275.339 17.4355H276.368L274.894 21.1064H273.793L272.837 18.6409L271.881 21.1064H270.779L269.3 17.4355H270.329L271.321 19.9315L272.277 17.4355H273.385Z" fill="#1A1A1A"/>
<path d="M279.838 20.4066H277.793L277.446 21.1005H276.338L278.255 17.4297H279.363L281.281 21.1005H280.173L279.838 20.4066ZM278.146 19.6943H279.485L278.815 18.3428L278.146 19.6943Z" fill="#1A1A1A"/>
<path d="M282.881 21.1005H281.889V17.4297H284.373C284.641 17.4297 284.866 17.4601 285.055 17.5149C285.244 17.5697 285.39 17.6488 285.511 17.7523C285.627 17.8558 285.712 17.9776 285.767 18.1176C285.822 18.2637 285.846 18.422 285.846 18.5985C285.846 18.7507 285.822 18.8907 285.779 19.0064C285.737 19.1221 285.676 19.2195 285.603 19.3047C285.53 19.3899 285.444 19.4569 285.347 19.5117C285.25 19.5665 285.146 19.6152 285.037 19.6517L286.236 21.1005H285.079L283.965 19.7491H282.881V21.1005ZM284.836 18.5924C284.836 18.5194 284.823 18.4585 284.805 18.4098C284.787 18.3611 284.756 18.3185 284.708 18.2881C284.659 18.2576 284.598 18.2333 284.519 18.2211C284.44 18.2089 284.343 18.1967 284.227 18.1967H282.869V18.982H284.227C284.343 18.982 284.44 18.976 284.519 18.9577C284.598 18.9455 284.659 18.9212 284.708 18.8907C284.756 18.8603 284.787 18.8177 284.805 18.769C284.83 18.7264 284.836 18.6655 284.836 18.5924Z" fill="#1A1A1A"/>
<path d="M291.435 19.2623C291.435 19.4997 291.411 19.7067 291.356 19.8893C291.301 20.072 291.234 20.2302 291.137 20.3642C291.046 20.4981 290.93 20.6138 290.802 20.7112C290.674 20.8086 290.528 20.8816 290.364 20.9364C290.206 20.9912 290.029 21.0338 289.846 21.0582C289.664 21.0825 289.469 21.0947 289.268 21.0947H286.937V17.4238H289.262C289.463 17.4238 289.658 17.436 289.84 17.4604C290.023 17.4847 290.2 17.5273 290.358 17.5821C290.516 17.6369 290.662 17.716 290.796 17.8074C290.93 17.8987 291.04 18.0143 291.131 18.1543C291.222 18.2883 291.295 18.4466 291.35 18.6292C291.405 18.8118 291.435 19.031 291.435 19.2623ZM290.437 19.2623C290.437 19.0858 290.413 18.9336 290.37 18.8057C290.327 18.6779 290.254 18.5683 290.151 18.4831C290.047 18.3979 289.92 18.337 289.755 18.2944C289.591 18.2517 289.396 18.2335 289.165 18.2335H287.935V20.3033H289.165C289.396 20.3033 289.597 20.285 289.755 20.2424C289.92 20.1998 290.047 20.1389 290.151 20.0476C290.254 19.9624 290.327 19.8528 290.37 19.725C290.413 19.5971 290.437 19.4388 290.437 19.2623Z" fill="#1A1A1A"/>
<path d="M295.721 18.4643C295.654 18.4278 295.562 18.3913 295.447 18.3487C295.331 18.3061 295.203 18.2634 295.057 18.2269C294.911 18.1904 294.759 18.1539 294.588 18.1295C294.418 18.1052 294.247 18.093 294.065 18.093C293.925 18.093 293.803 18.0991 293.7 18.1052C293.596 18.1112 293.517 18.1234 293.444 18.1417C293.371 18.1599 293.322 18.1721 293.28 18.1904C293.237 18.2086 293.206 18.2269 293.188 18.2452C293.17 18.2634 293.152 18.2817 293.146 18.3061C293.139 18.3243 293.133 18.3426 293.133 18.3608C293.133 18.4156 293.158 18.4582 293.213 18.5009C293.267 18.5435 293.34 18.5739 293.432 18.6104C293.523 18.647 293.633 18.6713 293.754 18.6957C293.876 18.7261 294.01 18.7505 294.144 18.7809C294.284 18.8113 294.424 18.8418 294.57 18.8783C294.716 18.9148 294.862 18.9513 294.996 19C295.13 19.0487 295.264 19.0975 295.386 19.1644C295.508 19.2253 295.617 19.2983 295.709 19.3775C295.8 19.4566 295.873 19.554 295.928 19.6636C295.982 19.7732 296.007 19.8949 296.007 20.0289C296.007 20.2054 295.976 20.3576 295.916 20.4854C295.855 20.6133 295.769 20.7168 295.666 20.8081C295.562 20.8933 295.441 20.9664 295.307 21.0151C295.167 21.0699 295.027 21.1064 294.875 21.1368C294.722 21.1673 294.57 21.1855 294.418 21.1916C294.266 21.1977 294.12 21.2038 293.98 21.2038C293.614 21.2038 293.28 21.1733 292.969 21.1125C292.659 21.0516 292.385 20.9785 292.153 20.8872V20.0106C292.397 20.1445 292.677 20.2541 292.987 20.3272C293.298 20.4063 293.633 20.4428 293.992 20.4428C294.205 20.4428 294.375 20.4307 294.503 20.4124C294.631 20.3941 294.741 20.3637 294.814 20.3272C294.887 20.2906 294.941 20.2541 294.966 20.2115C294.99 20.1689 295.008 20.1324 295.008 20.0958C295.008 20.035 294.984 19.9862 294.929 19.9436C294.875 19.901 294.801 19.8645 294.71 19.828C294.619 19.7975 294.509 19.7671 294.387 19.7367C294.266 19.7062 294.132 19.6819 293.998 19.6514C293.858 19.6271 293.718 19.5966 293.572 19.5601C293.426 19.5297 293.286 19.4931 293.146 19.4444C293.006 19.4018 292.878 19.347 292.756 19.2923C292.634 19.2375 292.525 19.1644 292.433 19.0853C292.342 19.0061 292.269 18.9148 292.214 18.8113C292.159 18.7078 292.135 18.5861 292.135 18.4522C292.135 18.2878 292.165 18.1478 292.22 18.0321C292.275 17.9164 292.354 17.8129 292.452 17.7338C292.549 17.6486 292.659 17.5816 292.786 17.5329C292.914 17.4842 293.048 17.4416 293.188 17.4112C293.328 17.3807 293.468 17.3625 293.614 17.3503C293.76 17.3381 293.894 17.332 294.028 17.332C294.168 17.332 294.314 17.3381 294.467 17.3564C294.619 17.3746 294.765 17.3929 294.911 17.4173C295.057 17.4416 295.197 17.472 295.337 17.5086C295.477 17.5451 295.599 17.5755 295.715 17.6181V18.4643H295.721Z" fill="#1A1A1A"/>
<path d="M298.148 2.61252L298.392 1.59588C298.428 1.44369 298.312 1.29758 298.16 1.29758H297.144C297.034 1.29758 296.937 1.37063 296.912 1.48021L296.614 2.7221C296.59 2.83168 296.492 2.90472 296.383 2.90472H295.141C295.007 2.90472 294.903 2.79515 294.903 2.6673V1.15148C294.903 1.01755 294.794 0.914062 294.666 0.914062H293.631C293.497 0.914062 293.394 1.02364 293.394 1.15148V2.6673C293.394 2.80123 293.284 2.90472 293.156 2.90472H291.902C291.792 2.90472 291.695 2.83168 291.671 2.7221L291.378 1.51065C291.354 1.40107 291.257 1.32802 291.147 1.32802H290.13C289.978 1.32802 289.863 1.47413 289.899 1.62632L290.137 2.61252C290.173 2.76471 290.057 2.91082 289.905 2.91082H288.152C288.018 2.91082 287.915 3.02039 287.915 3.14824V4.07355V5.2363C287.915 5.37023 288.024 5.47372 288.152 5.47372H289.187C289.321 5.47372 289.424 5.36414 289.424 5.2363V4.31097C289.424 4.17704 289.534 4.07355 289.662 4.07355H298.653C298.787 4.07355 298.891 4.18313 298.891 4.31097V5.61983C298.891 5.75375 299 5.85724 299.128 5.85724H300.163C300.297 5.85724 300.401 5.74767 300.401 5.61983V4.06747V3.52567V3.13606C300.401 3.00213 300.291 2.89864 300.163 2.89864H298.404C298.227 2.91081 298.112 2.76471 298.148 2.61252Z" fill="#1A1A1A"/>
<path d="M288.907 9.2244L288.901 12.183C288.901 12.3169 289.01 12.4204 289.138 12.4204H290.173C290.307 12.4204 290.41 12.3109 290.41 12.183V9.99754C290.41 9.86361 290.52 9.76012 290.648 9.76012H297.612C297.746 9.76012 297.85 9.8697 297.85 9.99754V12.183C297.85 12.3169 297.959 12.4204 298.087 12.4204H299.122C299.256 12.4204 299.359 12.3109 299.359 12.183V9.2244H299.353V9.10265C299.353 8.96872 299.244 8.86523 299.116 8.86523H289.132C288.998 8.86523 288.895 8.97481 288.895 9.10265V9.2244H288.907Z" fill="#1A1A1A"/>
<path d="M297.198 8.00601H297.819H298.184C298.318 8.00601 298.422 7.89644 298.422 7.76859V5.11437C298.422 4.98044 298.312 4.87695 298.184 4.87695H297.819H297.198H291.08H290.398H290.088C289.954 4.87695 289.85 4.98653 289.85 5.11437V7.76859C289.85 7.90252 289.96 8.00601 290.088 8.00601H290.398H291.08H297.198ZM297.198 6.00318V6.87979C297.198 7.01372 297.089 7.11721 296.961 7.11721H291.317C291.184 7.11721 291.08 7.00763 291.08 6.87979V6.00318C291.08 5.86925 291.19 5.76576 291.317 5.76576H296.961C297.089 5.76576 297.198 5.86925 297.198 6.00318Z" fill="#1A1A1A"/>
<path d="M294.136 10.3379L288.797 14.5079C288.614 14.648 288.717 14.9341 288.943 14.9341H290.075C290.13 14.9341 290.178 14.9158 290.221 14.8854L294.014 11.9694C294.099 11.9024 294.221 11.9024 294.306 11.9694L298.099 14.8854C298.141 14.9158 298.19 14.9341 298.245 14.9341H299.328C299.554 14.9341 299.657 14.648 299.475 14.5079L294.136 10.3379Z" fill="#1A1A1A"/>
<path d="M279.227 0.988281H278.192C278.058 0.988281 277.955 1.09786 277.955 1.2257V4.61653C277.955 4.75045 277.845 4.85395 277.717 4.85395H272.75C272.616 4.85395 272.512 4.96353 272.512 5.09137V5.77927C272.512 5.9132 272.622 6.01669 272.75 6.01669H277.011C277.194 6.01669 277.309 6.20541 277.224 6.36978L272.975 14.582C272.89 14.7403 273.005 14.9351 273.188 14.9351H274.43C274.521 14.9351 274.6 14.8864 274.643 14.8073L278.545 7.27075C278.637 7.10029 278.88 7.10029 278.971 7.27075L282.874 14.8073C282.916 14.8864 282.995 14.9351 283.087 14.9351H284.256C284.438 14.9351 284.554 14.7464 284.469 14.582L280.219 6.36978C280.134 6.2115 280.25 6.01669 280.432 6.01669H284.694C284.828 6.01669 284.931 5.90711 284.931 5.77927V5.09137C284.931 4.95744 284.822 4.85395 284.694 4.85395H279.726C279.592 4.85395 279.489 4.74437 279.489 4.61653V1.2257C279.471 1.09177 279.361 0.988281 279.227 0.988281Z" fill="#1A1A1A"/>
<path d="M251.497 4.21885H250.469C250.353 4.21885 250.249 4.30408 250.231 4.41974L250.073 5.44247C250.055 5.55813 249.957 5.64336 249.836 5.64336H245.921C245.805 5.64336 245.702 5.55813 245.684 5.44247L245.519 4.36496C245.501 4.24929 245.404 4.16406 245.282 4.16406H244.253C244.107 4.16406 243.991 4.29799 244.016 4.43801L244.162 5.36942C244.186 5.51552 244.07 5.64336 243.924 5.64336H241.794C241.66 5.64336 241.556 5.75294 241.556 5.88078V6.56869C241.556 6.70262 241.666 6.80611 241.794 6.80611H253.957C254.091 6.80611 254.194 6.69653 254.194 6.56869V5.88078C254.194 5.74685 254.085 5.64336 253.957 5.64336H251.832C251.686 5.64336 251.571 5.50943 251.595 5.36942L251.729 4.49279C251.753 4.34669 251.644 4.21885 251.497 4.21885Z" fill="#1A1A1A"/>
<path d="M253.573 2.42989H248.874C248.74 2.42989 248.636 2.32031 248.636 2.19247V1.15148C248.636 1.01755 248.527 0.914062 248.399 0.914062H247.364C247.23 0.914062 247.127 1.02364 247.127 1.15148V2.19247C247.127 2.3264 247.017 2.42989 246.889 2.42989H242.189C242.055 2.42989 241.952 2.53946 241.952 2.6673V3.35521C241.952 3.48914 242.061 3.59263 242.189 3.59263H253.58C253.713 3.59263 253.817 3.48305 253.817 3.35521V2.6673C253.811 2.53946 253.707 2.42989 253.573 2.42989Z" fill="#1A1A1A"/>
<path d="M251.491 7.88477H244.247H243.199H242.974C242.84 7.88477 242.737 7.99434 242.737 8.12218V14.6908C242.737 14.8247 242.846 14.9282 242.974 14.9282H244.247V14.916H251.491V14.9282H252.763C252.897 14.9282 253.001 14.8186 253.001 14.6908V8.12218C253.001 7.98826 252.891 7.88477 252.763 7.88477H252.611H251.491ZM251.491 9.29102V10.265C251.491 10.399 251.381 10.5025 251.254 10.5025H244.49C244.356 10.5025 244.253 10.3929 244.253 10.265V9.29102C244.253 9.15709 244.362 9.0536 244.49 9.0536H251.254C251.388 9.0536 251.491 9.15709 251.491 9.29102ZM244.247 13.5159V11.9148C244.247 11.7809 244.356 11.6774 244.484 11.6774H251.248C251.381 11.6774 251.485 11.787 251.485 11.9148V13.5159C251.485 13.6498 251.375 13.7533 251.248 13.7533H244.484C244.356 13.7533 244.247 13.6437 244.247 13.5159Z" fill="#1A1A1A"/>
<path d="M232.917 4.54196H232.589C232.455 4.54196 232.351 4.43238 232.351 4.30454V3.50705C232.351 3.37313 232.461 3.26964 232.589 3.26964H233.904C234.038 3.26964 234.141 3.16006 234.141 3.03222V2.62434C234.141 2.49042 234.032 2.38693 233.904 2.38693H232.589C232.455 2.38693 232.351 2.27735 232.351 2.14951V1.10851C232.351 0.974584 232.242 0.871094 232.114 0.871094H231.365C231.231 0.871094 231.128 0.980671 231.128 1.10851V2.14951C231.128 2.28344 231.018 2.38693 230.89 2.38693H229.575C229.441 2.38693 229.338 2.4965 229.338 2.62434V3.03222C229.338 3.16615 229.447 3.26964 229.575 3.26964H230.89C231.024 3.26964 231.128 3.37921 231.128 3.50705V4.30454C231.128 4.43847 231.018 4.54196 230.89 4.54196H230.562H229.874H229.569C229.435 4.54196 229.332 4.65153 229.332 4.77937V9.90519C229.332 10.0391 229.441 10.1426 229.569 10.1426H229.874H230.562H230.89C231.024 10.1426 231.128 10.2522 231.128 10.38V11.2384C231.128 11.3723 231.018 11.4758 230.89 11.4758H229.575C229.441 11.4758 229.338 11.5854 229.338 11.7132V12.1211C229.338 12.255 229.447 12.3585 229.575 12.3585H230.89C231.024 12.3585 231.128 12.4681 231.128 12.5959V14.6536C231.128 14.7875 231.237 14.891 231.365 14.891H232.114C232.248 14.891 232.351 14.7814 232.351 14.6536V12.5959C232.351 12.462 232.461 12.3585 232.589 12.3585H233.904C234.038 12.3585 234.141 12.2489 234.141 12.1211V11.7132C234.141 11.5793 234.032 11.4758 233.904 11.4758H232.589C232.455 11.4758 232.351 11.3662 232.351 11.2384V10.38C232.351 10.2461 232.461 10.1426 232.589 10.1426H232.917H233.605H233.91C234.044 10.1426 234.147 10.033 234.147 9.90519V4.77937C234.147 4.64545 234.038 4.54196 233.91 4.54196H233.605H232.917ZM232.917 5.66818V6.66046C232.917 6.79439 232.808 6.89788 232.68 6.89788H230.793C230.659 6.89788 230.555 6.7883 230.555 6.66046V5.66818C230.555 5.53425 230.665 5.43076 230.793 5.43076H232.68C232.814 5.42467 232.917 5.53425 232.917 5.66818ZM230.549 9.02248V8.03019C230.549 7.89626 230.659 7.79277 230.787 7.79277H232.674C232.808 7.79277 232.911 7.90235 232.911 8.03019V9.02248C232.911 9.15641 232.802 9.2599 232.674 9.2599H230.787C230.659 9.2599 230.549 9.15032 230.549 9.02248Z" fill="#1A1A1A"/>
<path d="M237.702 1.56641H235.986H235.06H234.999C234.865 1.56641 234.762 1.67598 234.762 1.80382V14.6975C234.762 14.8314 234.872 14.9349 234.999 14.9349H235.748C235.882 14.9349 235.986 14.8253 235.986 14.6975V10.1805C235.986 10.0465 236.095 9.94303 236.223 9.94303H237.465C237.599 9.94303 237.702 10.0526 237.702 10.1805V14.6975C237.702 14.8314 237.812 14.9349 237.94 14.9349H238.689C238.823 14.9349 238.926 14.8253 238.926 14.6975V1.56641H238.786H237.702ZM237.702 2.69263V5.1703C237.702 5.30423 237.593 5.40772 237.465 5.40772H236.223C236.089 5.40772 235.986 5.29814 235.986 5.1703V2.69263C235.986 2.5587 236.095 2.45521 236.223 2.45521H237.465C237.593 2.44912 237.702 2.5587 237.702 2.69263ZM235.98 8.81074V6.53394C235.98 6.40002 236.089 6.29653 236.217 6.29653H237.459C237.593 6.29653 237.696 6.4061 237.696 6.53394V8.81074C237.696 8.94466 237.587 9.04815 237.459 9.04815H236.217C236.089 9.04815 235.98 8.93858 235.98 8.81074Z" fill="#1A1A1A"/>
<path d="M226.507 14.8618H227.402C227.518 14.8618 227.621 14.7766 227.64 14.6609L228.589 9.0359C228.614 8.88979 228.504 8.75586 228.352 8.75586H227.457C227.341 8.75586 227.238 8.84109 227.22 8.95675L226.27 14.5818C226.246 14.7279 226.361 14.8618 226.507 14.8618Z" fill="#1A1A1A"/>
<path d="M226.452 3.19789L228.321 3.83709C228.479 3.89188 228.638 3.77622 228.638 3.61185V2.95438C228.638 2.85089 228.571 2.75958 228.473 2.72914L226.604 2.08993C226.446 2.03515 226.288 2.15081 226.288 2.31518V2.97264C226.288 3.07005 226.355 3.16137 226.452 3.19789Z" fill="#1A1A1A"/>
<path d="M226.452 6.36781L228.321 7.00701C228.479 7.0618 228.638 6.94614 228.638 6.78177V6.1243C228.638 6.02081 228.571 5.92949 228.473 5.89905L226.604 5.25986C226.446 5.20507 226.288 5.32073 226.288 5.4851V6.14257C226.288 6.23997 226.355 6.33128 226.452 6.36781Z" fill="#1A1A1A"/>
<path d="M211.178 14.8794H212.2C212.316 14.8794 212.413 14.8002 212.438 14.6907L213.643 9.06565C213.674 8.91346 213.564 8.77344 213.406 8.77344H212.383C212.267 8.77344 212.17 8.85258 212.146 8.96216L210.94 14.5872C210.91 14.7394 211.025 14.8794 211.178 14.8794Z" fill="#1A1A1A"/>
<path d="M210.88 3.21547L213.388 4.06774C213.546 4.12253 213.704 4.00687 213.704 3.8425V3.18503C213.704 3.08154 213.637 2.99023 213.54 2.95979L211.032 2.10751C210.874 2.05272 210.715 2.16839 210.715 2.33275V2.99022C210.715 3.09371 210.782 3.18503 210.88 3.21547Z" fill="#1A1A1A"/>
<path d="M210.88 6.38734L213.388 7.23962C213.546 7.29441 213.704 7.17873 213.704 7.01437V6.3569C213.704 6.25341 213.637 6.1621 213.54 6.13166L211.032 5.27939C210.874 5.2246 210.715 5.34026 210.715 5.50463V6.1621C210.715 6.26559 210.782 6.3569 210.88 6.38734Z" fill="#1A1A1A"/>
<path d="M263.837 4.2434H262.802C262.668 4.2434 262.564 4.35298 262.564 4.48082V6.86109C262.564 6.99502 262.455 7.09851 262.327 7.09851H258.875C258.735 7.09851 258.625 6.98284 258.638 6.84283L258.875 3.31807C258.881 3.19632 258.985 3.09891 259.106 3.09282L269.072 2.77627C269.2 2.77018 269.303 2.66669 269.303 2.53885V1.85094C269.303 1.71701 269.194 1.60744 269.054 1.61352L258.175 1.96052H257.676C257.548 1.96052 257.444 2.05792 257.438 2.18577L257.043 8.02384C257.03 8.16385 257.14 8.27952 257.28 8.27952H258.534V8.26734H262.321C262.455 8.26734 262.558 8.37693 262.558 8.50477V14.6898C262.558 14.8238 262.668 14.9272 262.796 14.9272H263.831C263.964 14.9272 264.068 14.8177 264.068 14.6898V8.50477C264.068 8.37084 264.178 8.26734 264.305 8.26734H269.279C269.413 8.26734 269.517 8.15776 269.517 8.02992V7.34202C269.517 7.20809 269.407 7.1046 269.279 7.1046H264.305C264.171 7.1046 264.068 6.99502 264.068 6.86718V4.4869C264.08 4.35297 263.971 4.2434 263.837 4.2434Z" fill="#1A1A1A"/>
<path d="M257.56 14.0821H258.425C258.516 14.0821 258.595 14.0334 258.638 13.9542L260.781 9.95465C260.866 9.79637 260.75 9.60156 260.568 9.60156H259.703C259.612 9.60156 259.533 9.65027 259.49 9.72941L257.347 13.729C257.262 13.8934 257.378 14.0821 257.56 14.0821Z" fill="#1A1A1A"/>
<path d="M265.87 9.95465L268.013 13.9542C268.056 14.0334 268.135 14.0821 268.226 14.0821H269.091C269.273 14.0821 269.389 13.8873 269.304 13.729L267.161 9.72941C267.118 9.65027 267.039 9.60156 266.948 9.60156H266.083C265.901 9.60156 265.785 9.79637 265.87 9.95465Z" fill="#1A1A1A"/>
<path d="M223.043 9.88749L220.845 10.6789C220.741 10.7154 220.62 10.6789 220.559 10.5815L219.846 9.44309C219.749 9.28481 219.859 9.07782 220.047 9.07782H221.32H222.622H222.836V6.31403V5.1452V3.53805V2.80754C222.836 2.57012 222.641 2.37531 222.403 2.37531H221.326H219.433C219.311 2.37531 219.213 2.29008 219.195 2.16833L219.025 1.01167C219.006 0.896 218.909 0.804688 218.787 0.804688H217.758C217.612 0.804688 217.503 0.932527 217.521 1.07863L217.667 2.09527C217.685 2.24137 217.576 2.36922 217.43 2.36922H216.084H215.366H214.812C214.678 2.36922 214.574 2.4788 214.574 2.60664V13.4183V13.9114V14.5872C214.574 14.7515 214.739 14.8672 214.897 14.8124L217.953 13.7045C218.051 13.6679 218.111 13.5827 218.111 13.4792V12.4747C218.111 12.3104 217.947 12.1947 217.789 12.2495L216.407 12.7487C216.249 12.8035 216.084 12.6878 216.084 12.5234V9.30307C216.084 9.16915 216.194 9.06566 216.322 9.06566H217.771C217.856 9.06566 217.929 9.10826 217.971 9.17523L221.508 14.8124C221.551 14.8794 221.63 14.922 221.709 14.922H222.848C223.036 14.922 223.152 14.715 223.049 14.5567L221.478 12.0608C221.399 11.9329 221.454 11.7564 221.6 11.7077L223.189 11.1415C223.286 11.105 223.347 11.0198 223.347 10.9163V10.1066C223.359 9.94836 223.195 9.8327 223.043 9.88749ZM216.084 3.77547C216.084 3.64154 216.194 3.53805 216.322 3.53805H221.076C221.21 3.53805 221.314 3.64763 221.314 3.77547V4.90168C221.314 5.03561 221.204 5.1391 221.076 5.1391H216.322C216.188 5.1391 216.084 5.02953 216.084 4.90168V3.77547ZM216.328 7.90899C216.194 7.90899 216.09 7.79942 216.09 7.67157V6.55145C216.09 6.41752 216.2 6.31403 216.328 6.31403H221.082C221.216 6.31403 221.32 6.42361 221.32 6.55145V7.67157C221.32 7.8055 221.21 7.90899 221.082 7.90899H216.328Z" fill="#1A1A1A"/>
</svg>
