<svg class="noise-poster-art noise-poster-en" xmlns="http://www.w3.org/2000/svg" viewBox="0 0 1300 700" aria-hidden="true" focusable="false"><defs><path id="noise-glyph-M" d="M0 300V0H38L60 104L82 0H120V300H81V153L66 212H54L39 153V300Z" fill-rule="evenodd"/><path id="noise-glyph-A" d="M0 300L31 0H80L112 300H73L66 244H45L38 300Z M49 207H62L55 97Z" fill-rule="evenodd"/><path id="noise-glyph-K" d="M0 300V0H38V121L69 0H110L69 144L113 300H70L38 176V300Z" fill-rule="evenodd"/><path id="noise-glyph-E" d="M0 300V0H94V46H38V124H86V168H38V254H94V300Z" fill-rule="evenodd"/><path id="noise-glyph-S" d="M108 82H70V55Q70 40 54 40Q38 40 38 55V84Q38 97 54 110L84 133Q108 152 108 185V247Q108 300 54 300Q0 300 0 247V213H38V245Q38 260 54 260Q70 260 70 245V207Q70 192 54 180L24 157Q0 139 0 106V53Q0 0 54 0Q108 0 108 53Z" fill-rule="evenodd"/><path id="noise-glyph-O" d="M110 51V249Q110 300 55 300Q0 300 0 249V51Q0 0 55 0Q110 0 110 51Z M39 56V244Q39 260 55 260Q71 260 71 244V56Q71 40 55 40Q39 40 39 56Z" fill-rule="evenodd"/><path id="noise-glyph-N" d="M0 300V0H36L69 151V0H105V300H69L36 148V300Z" fill-rule="evenodd"/><path id="noise-glyph-I" d="M0 0H38V300H0Z" fill-rule="evenodd"/><filter id="noise-print-grain"><feTurbulence type="fractalNoise" baseFrequency=".78" numOctaves="2" stitchTiles="stitch"/><feColorMatrix type="saturate" values="0"/></filter></defs><g transform="translate(28 12) scale(1.56 0.49)" fill="#f4f1eb"><g transform="translate(0 0)"><g class="noise-letter"><use href="#noise-glyph-M"/></g></g><g transform="translate(125 0)"><g class="noise-letter"><use href="#noise-glyph-A"/></g></g><g transform="translate(242 0)"><g class="noise-letter"><use href="#noise-glyph-K"/></g></g><g transform="translate(360 0)"><g class="noise-letter"><use href="#noise-glyph-E"/></g></g></g><g transform="translate(31 170) scale(0.87 0.8)" fill="#f4f1eb"><g transform="translate(0 0)"><g class="noise-letter"><use href="#noise-glyph-S"/></g></g><g transform="translate(113 0)"><g class="noise-letter"><use href="#noise-glyph-O"/></g></g><g transform="translate(228 0)"><g class="noise-letter"><use href="#noise-glyph-M"/></g></g><g transform="translate(353 0)"><g class="noise-letter"><use href="#noise-glyph-E"/></g></g></g><g transform="translate(68 413) rotate(-20) scale(1.5 0.8)"><g class="noise-letter noise-letter-red"><use href="#noise-glyph-N" transform="translate(-14 20)" fill="#ad9b44" stroke="#452c36" stroke-width="1.1" stroke-linejoin="round"/><use href="#noise-glyph-N" transform="translate(-10 15)" fill="#cb993c" stroke="#452c36" stroke-width="1.1" stroke-linejoin="round"/><use href="#noise-glyph-N" transform="translate(-6 10)" fill="#d67b30" stroke="#452c36" stroke-width="1.1" stroke-linejoin="round"/><use href="#noise-glyph-N" transform="translate(-3 5)" fill="#bd4d28" stroke="#452c36" stroke-width="1.1" stroke-linejoin="round"/><use href="#noise-glyph-N" transform="translate(0 0)" fill="#e3241a" stroke="#452c36" stroke-width="1.1" stroke-linejoin="round"/></g></g><g transform="translate(294 420) rotate(-7) scale(1.55 0.83)"><g class="noise-letter noise-letter-red"><use href="#noise-glyph-O" transform="translate(-14 20)" fill="#ad9b44" stroke="#452c36" stroke-width="1.1" stroke-linejoin="round"/><use href="#noise-glyph-O" transform="translate(-10 15)" fill="#cb993c" stroke="#452c36" stroke-width="1.1" stroke-linejoin="round"/><use href="#noise-glyph-O" transform="translate(-6 10)" fill="#d67b30" stroke="#452c36" stroke-width="1.1" stroke-linejoin="round"/><use href="#noise-glyph-O" transform="translate(-3 5)" fill="#bd4d28" stroke="#452c36" stroke-width="1.1" stroke-linejoin="round"/><use href="#noise-glyph-O" transform="translate(0 0)" fill="#e3241a" stroke="#452c36" stroke-width="1.1" stroke-linejoin="round"/></g></g><g transform="translate(527 348) rotate(8) scale(1.64 1.02)"><g class="noise-letter noise-letter-red"><use href="#noise-glyph-I" transform="translate(-14 20)" fill="#ad9b44" stroke="#452c36" stroke-width="1.1" stroke-linejoin="round"/><use href="#noise-glyph-I" transform="translate(-10 15)" fill="#cb993c" stroke="#452c36" stroke-width="1.1" stroke-linejoin="round"/><use href="#noise-glyph-I" transform="translate(-6 10)" fill="#d67b30" stroke="#452c36" stroke-width="1.1" stroke-linejoin="round"/><use href="#noise-glyph-I" transform="translate(-3 5)" fill="#bd4d28" stroke="#452c36" stroke-width="1.1" stroke-linejoin="round"/><use href="#noise-glyph-I" transform="translate(0 0)" fill="#e3241a" stroke="#452c36" stroke-width="1.1" stroke-linejoin="round"/></g></g><g transform="translate(706 301) rotate(12) scale(1.62 1.1)"><g class="noise-letter noise-letter-red"><use href="#noise-glyph-S" transform="translate(-14 20)" fill="#ad9b44" stroke="#452c36" stroke-width="1.1" stroke-linejoin="round"/><use href="#noise-glyph-S" transform="translate(-10 15)" fill="#cb993c" stroke="#452c36" stroke-width="1.1" stroke-linejoin="round"/><use href="#noise-glyph-S" transform="translate(-6 10)" fill="#d67b30" stroke="#452c36" stroke-width="1.1" stroke-linejoin="round"/><use href="#noise-glyph-S" transform="translate(-3 5)" fill="#bd4d28" stroke="#452c36" stroke-width="1.1" stroke-linejoin="round"/><use href="#noise-glyph-S" transform="translate(0 0)" fill="#e3241a" stroke="#452c36" stroke-width="1.1" stroke-linejoin="round"/></g></g><g transform="translate(968 182) rotate(-20) scale(1.9 1.31)"><g class="noise-letter noise-letter-red"><use href="#noise-glyph-E" transform="translate(-14 20)" fill="#ad9b44" stroke="#452c36" stroke-width="1.1" stroke-linejoin="round"/><use href="#noise-glyph-E" transform="translate(-10 15)" fill="#cb993c" stroke="#452c36" stroke-width="1.1" stroke-linejoin="round"/><use href="#noise-glyph-E" transform="translate(-6 10)" fill="#d67b30" stroke="#452c36" stroke-width="1.1" stroke-linejoin="round"/><use href="#noise-glyph-E" transform="translate(-3 5)" fill="#bd4d28" stroke="#452c36" stroke-width="1.1" stroke-linejoin="round"/><use href="#noise-glyph-E" transform="translate(0 0)" fill="#e3241a" stroke="#452c36" stroke-width="1.1" stroke-linejoin="round"/></g></g><path d="M50 661Q199 625 363 644L375 668Q219 652 55 685Z" fill="#e3241a" stroke="#452c36" stroke-width="1.3"/></svg>